<svg xmlns="http://www.w3.org/2000/svg" width="778.234" height="621" viewBox="0 0 778.234 621">
  <g id="Grupo_43" data-name="Grupo 43" transform="translate(0 0)">
    <path id="Caminho_113" data-name="Caminho 113" d="M349.192,563.261a9.13,9.13,0,0,0,15.79-9.17,9.831,9.831,0,0,0-.86-1.22l7.68-54.74.23-1.64,1.56-11.17.23-1.61-.85.04-14.88.68-3.99.18-.5,10.19-2.83,57.29A9.117,9.117,0,0,0,349.192,563.261Z" transform="translate(-210.883 -139.5)" fill="#ffb8b8"/>
    <path id="Caminho_114" data-name="Caminho 114" d="M371.988,496.989l-18.895-1.733a3.73,3.73,0,0,1-3.364-4.037l3.5-39.292a14.326,14.326,0,1,1,28.443,3.357l-5.666,38.54A3.723,3.723,0,0,1,372.333,497C372.219,497,372.1,497,371.988,496.989Z" transform="translate(-210.883 -139.5)" fill="#6c63ff"/>
    <path id="Caminho_115" data-name="Caminho 115" d="M357.669,465.243a26.316,26.316,0,0,1,9.679-30.288c7.125-4.875,16.875-6.625,27.375,5.875,21,25,26.5,52.5,26.5,52.5l-43,7S363.6,482.456,357.669,465.243Z" transform="translate(-210.883 -139.5)" fill="#6c63ff"/>
    <g id="Grupo_42" data-name="Grupo 42" opacity="0.2">
      <path id="Caminho_116" data-name="Caminho 116" d="M384.732,434.831c-3.176,8.751-6.419,17.854-6.629,27.624a43.379,43.379,0,0,0,5,21.465c3.369,6.106,8.291,10.572,13.708,12.439a5.7,5.7,0,0,0,3.225.364,3.594,3.594,0,0,0,2.5-2.555c.49-1.724-.1-3.636-.678-5.307-6.428-18.539-9.544-34.646-15.973-53.185Z" transform="translate(-210.883 -139.5)"/>
    </g>
    <path id="Caminho_117" data-name="Caminho 117" d="M216.331,607.35h12.26l5.832-47.288H216.329Z" fill="#ffb8b8"/>
    <path id="Caminho_118" data-name="Caminho 118" d="M424.587,743.346h38.531v14.887H439.474a14.887,14.887,0,0,1-14.887-14.887Z" transform="translate(676.856 1362.059) rotate(179.997)" fill="#2f2e41"/>
    <path id="Caminho_119" data-name="Caminho 119" d="M115.537,596.657l11.641,3.848,20.38-43.068-17.181-5.678Z" fill="#ffb8b8"/>
    <path id="Caminho_120" data-name="Caminho 120" d="M321.716,737.677h38.531v14.887H336.6a14.887,14.887,0,0,1-14.887-14.887h0Z" transform="translate(220.012 1420.107) rotate(-161.71)" fill="#2f2e41"/>
    <circle id="Elipse_3" data-name="Elipse 3" cx="24.561" cy="24.561" r="24.561" transform="translate(149.216 233.935)" fill="#ffb8b8"/>
    <path id="Caminho_121" data-name="Caminho 121" d="M406.164,733.685l-11.385-75.144a3.5,3.5,0,0,0-6.862-.3l-17.337,71.612a4.533,4.533,0,0,1-5.088,3.385l-47.825-7.686a4.5,4.5,0,0,1-3.592-5.75l62.361-205.6a3.5,3.5,0,0,0,.061-1.8l-2.076-9a4.483,4.483,0,0,1,2.327-5.014c8.492-4.333,30-13.341,46.231-3.474a4.551,4.551,0,0,1,2.079,2.927l48.716,228.966a4.5,4.5,0,0,1-4,5.419l-58.757,5.262q-.2.018-.4.018a4.508,4.508,0,0,1-4.448-3.825Z" transform="translate(-210.883 -139.5)" fill="#2f2e41"/>
    <path id="Caminho_122" data-name="Caminho 122" d="M445.042,546.617a9.078,9.078,0,0,0-5.649-12.722L408.7,471.17l-15.834,11.791L427.9,540.724a9.127,9.127,0,0,0,17.142,5.894Z" transform="translate(-210.883 -139.5)" fill="#ffb8b8"/>
    <path id="Caminho_123" data-name="Caminho 123" d="M390.941,486.875l-19.1-34.508a14.28,14.28,0,0,1-.163-13.6,13.673,13.673,0,0,1,3.747-4.545,14.337,14.337,0,0,1,14.519-1.991,14.74,14.74,0,0,1,7.487,7.3l16.742,34.791a3.723,3.723,0,0,1-1.562,4.877l-16.621,9.136a3.727,3.727,0,0,1-5.051-1.46Z" transform="translate(-210.883 -139.5)" fill="#6c63ff"/>
    <path id="Caminho_124" data-name="Caminho 124" d="M372.464,376.559a18.58,18.58,0,0,0,5.615-3.139,6.3,6.3,0,0,0,2.194-5.771c-.656-2.933-4.088-4.535-7.076-4.205s-5.605,2.071-8.091,3.76c-2.189,1.488-4.447,3.048-5.812,5.316s-1.573,5.462.242,7.39c1.781,1.892,4.9,1.921,7.234.774s4.057-3.209,5.71-5.214Z" transform="translate(-210.883 -139.5)" fill="#2f2e41"/>
    <path id="Caminho_125" data-name="Caminho 125" d="M365.75,368.009c1.28-6.8-5.429-13.271-12.348-13.462s-13.232,4.426-17.106,10.162c-8.186,12.119-7.27,28.087-4.827,42.506s6.085,29.3,2.34,43.436a43.925,43.925,0,0,1-32.534,31.014c6.815,4.982,16.546,3.334,23.98-.665,16.51-8.881,26.318-28.777,23.308-47.281-1.485-9.126-5.7-17.548-8.525-26.352S335.87,388.6,340,380.331s15.428-13.313,23.113-8.171Z" transform="translate(-210.883 -139.5)" fill="#2f2e41"/>
    <path id="Caminho_126" data-name="Caminho 126" d="M384.08,407.842c-1.357-3.979-2.5-9.071,1.975-11.367a8.064,8.064,0,0,1,6.25-.331c4.211,1.422,8.869,2.618,13.377,1.92a12.644,12.644,0,0,0,8.526-4.954c3.225-4.663,1.819-11.441-2.019-15.616a17.4,17.4,0,0,0-18.782-4.266c-5.306-3.8-12.636-4.132-18.686-1.686s-10.871,7.378-14.112,13.043a30.206,30.206,0,0,0-4.3,16.076,24.692,24.692,0,0,0,11.547,19.651,8.892,8.892,0,0,0,8.863.518s3.917-2.2,5.681-5.469C383.758,412.851,384.8,409.968,384.08,407.842Z" transform="translate(-210.883 -139.5)" fill="#2f2e41"/>
    <path id="Caminho_127" data-name="Caminho 127" d="M592.883,760.5h-381a1,1,0,1,1,0-2h381a1,1,0,0,1,0,2Z" transform="translate(-210.883 -139.5)" fill="#3f3d56"/>
    <path id="Caminho_128" data-name="Caminho 128" d="M821.066,523.857H699.923a12.453,12.453,0,0,1-12.439-12.438V316.571a12.453,12.453,0,0,1,12.439-12.439H821.066ZM699.923,306.133a10.45,10.45,0,0,0-10.439,10.439V511.418a10.45,10.45,0,0,0,10.439,10.439H819.066V306.133Z" transform="translate(-210.883 -139.5)" fill="#3f3d56"/>
    <path id="Caminho_129" data-name="Caminho 129" d="M817.934,304.133H939.077a12.453,12.453,0,0,1,12.439,12.439V511.418a12.453,12.453,0,0,1-12.439,12.439H817.934Z" transform="translate(-210.883 -139.5)" fill="#3f3d56"/>
    <rect id="Retângulo_204" data-name="Retângulo 204" width="1.367" height="63.582" transform="translate(518.571 114.173)" fill="#2f2e41"/>
    <path id="Caminho_130" data-name="Caminho 130" d="M730.547,255.041A14.357,14.357,0,1,1,744.9,240.684a14.357,14.357,0,0,1-14.357,14.357Zm0-27.347a12.99,12.99,0,1,0,12.99,12.99,12.99,12.99,0,0,0-12.99-12.99Z" transform="translate(-210.883 -139.5)" fill="#2f2e41"/>
    <rect id="Retângulo_205" data-name="Retângulo 205" width="1.367" height="146.99" transform="translate(658.469 28.714)" fill="#2f2e41"/>
    <path id="Caminho_131" data-name="Caminho 131" d="M870.445,168.214A14.357,14.357,0,1,1,884.8,153.857a14.357,14.357,0,0,1-14.357,14.357Zm0-27.347a12.99,12.99,0,1,0,12.99,12.99,12.99,12.99,0,0,0-12.99-12.99Z" transform="translate(-210.883 -139.5)" fill="#2f2e41"/>
    <path id="Caminho_132" data-name="Caminho 132" d="M819.566,460.559a45.539,45.539,0,1,1,0-91.078Z" transform="translate(-210.883 -139.5)" fill="#6c63ff"/>
    <path id="Caminho_133" data-name="Caminho 133" d="M819.566,369.481a45.539,45.539,0,1,1,0,91.078Z" transform="translate(-210.883 -139.5)" fill="#e6e6e6"/>
    <path id="Caminho_134" data-name="Caminho 134" d="M977.495,549.5H663.005a11.636,11.636,0,0,1-11.622-11.622V289.429a11.636,11.636,0,0,1,11.622-11.622h314.49a11.636,11.636,0,0,1,11.622,11.622V537.878A11.635,11.635,0,0,1,977.495,549.5ZM663.005,279.173a10.267,10.267,0,0,0-10.255,10.255V537.877a10.267,10.267,0,0,0,10.255,10.255h314.49a10.267,10.267,0,0,0,10.255-10.255V289.428a10.267,10.267,0,0,0-10.255-10.255Z" transform="translate(-210.883 -139.5)" fill="#3f3d56"/>
    <rect id="Retângulo_206" data-name="Retângulo 206" width="1.367" height="174.755" transform="translate(587.571 74)" fill="#2f2e41"/>
    <path id="Caminho_135" data-name="Caminho 135" d="M799.547,214.041A14.357,14.357,0,1,1,813.9,199.684a14.357,14.357,0,0,1-14.357,14.357Zm0-27.347a12.99,12.99,0,1,0,12.99,12.99,12.99,12.99,0,0,0-12.99-12.99Z" transform="translate(-210.883 -139.5)" fill="#2f2e41"/>
    <circle id="Elipse_4" data-name="Elipse 4" cx="9" cy="9" r="9" transform="translate(490.5 355)" fill="#3f3d56"/>
    <circle id="Elipse_5" data-name="Elipse 5" cx="9" cy="9" r="9" transform="translate(711.5 355)" fill="#e6e6e6"/>
    <circle id="Elipse_6" data-name="Elipse 6" cx="9" cy="9" r="9" transform="translate(490.5 176)" fill="#3f3d56"/>
    <circle id="Elipse_7" data-name="Elipse 7" cx="9" cy="9" r="9" transform="translate(711.5 176)" fill="#e6e6e6"/>
    <circle id="Elipse_8" data-name="Elipse 8" cx="13.674" cy="13.674" r="13.674" transform="translate(501.888 92.296)" fill="#f2f2f2"/>
    <circle id="Elipse_9" data-name="Elipse 9" cx="13.674" cy="13.674" r="13.674" transform="translate(641.786 5.469)" fill="#3f3d56"/>
    <circle id="Elipse_10" data-name="Elipse 10" cx="13.674" cy="13.674" r="13.674" transform="translate(570.888 51.296)" fill="#6c63ff"/>
  </g>
</svg>
